{"title":"Raging Bull.1980.SWESUB.DVDRip.XviD.-Zen_Bud","uid":5694828,"size":1467953152,"categoryP":"video","categoryS":"movies","magnet":"?xt=urn:btih:3ca5de75ffc479d2827e8f062069e378c8821f52&amp;dn=Raging+Bull.1980.SWESUB.DVDRip.XviD.-Zen_Bud&amp;tr=udp%3A%2F%2Ftracker.openbittorrent.com%3A80&amp;tr=udp%3A%2F%2Fopen.demonii.com%3A1337&amp;tr=udp%3A%2F%2Ftracker.coppersurfer.tk%3A6969&amp;tr=udp%3A%2F%2Fexodus.desync.com%3A6969","seeders":2,"leechers":0,"uploader":null,"files":1,"time":1279270203,"description":"General\n\nComplete name                    : Raging Bull.1980.avi\nFormat                           : AVI\nFile size                        : 1.37 GiB\nDuration                         : 2h 8mn\nOverall bit rate                 : 1 521 Kbps\n\n\nVideo\n\nFormat                           : MPEG-4 Visual\nCodec ID/Hint                    : XviD\nDuration                         : 2h 8mn\nBit rate                         : 1 387 Kbps\nWidth                            : 720 pixels\nHeight                           : 420 pixels\nDisplay aspect ratio             : 16:9\nStream size                      : 1.25 GiB (91%)\nWriting library                  : XviD 1.2.1 (UTC 2008-12-04)\n\nAudio\n\nFormat                           : MPEG Audio\nCodec ID/Hint                    : MP3\nDuration                         : 2h 8mn\nBit rate                         : 120 Kbps\nChannel(s)                       : 2 channels\nSampling rate                    : 48.0 KHz\nStream size                      : 111 MiB (8%)\nWriting library                  : LAME3.90.\n\n\n","torrent":{"xt":"urn:btih:3ca5de75ffc479d2827e8f062069e378c8821f52","amp;dn":"Raging+Bull.1980.SWESUB.DVDRip.XviD.-Zen_Bud","amp;tr":["udp%3A%2F%2Ftracker.openbittorrent.com%3A80","udp%3A%2F%2Fopen.demonii.com%3A1337","udp%3A%2F%2Ftracker.coppersurfer.tk%3A6969","udp%3A%2F%2Fexodus.desync.com%3A6969"],"infoHash":"3ca5de75ffc479d2827e8f062069e378c8821f52","infoHashBuffer":{"type":"Buffer","data":[60,165,222,117,255,196,121,210,130,126,143,6,32,105,227,120,200,130,31,82]},"announce":[],"urlList":[]}}